<?xml version="1.0" encoding="UTF-8"?>
<svg version="1.1" xmlns="http://www.w3.org/2000/svg" width="512" height="512">
<path d="M0 0 C9.250642 5.32719735 18.14792428 11.11339582 26.5625 17.6875 C27.13307129 18.13311279 27.70364258 18.57872559 28.29150391 19.0378418 C30.93232351 21.15555354 33.22618902 23.24758054 35.51953125 25.7578125 C39.95017251 30.5965057 39.95017251 30.5965057 46.08203125 32.21484375 C49.51287139 31.77251442 52.85505165 31.15641683 56.24560547 30.48339844 C62.03837545 29.46676268 67.89908651 28.94315011 73.75 28.375 C74.41889252 28.30960022 75.08778503 28.24420044 75.77694702 28.17681885 C101.82763052 25.67830148 128.44683187 26.28378245 154.265625 30.890625 C155.00264648 31.01518066 155.73966797 31.13973633 156.49902344 31.26806641 C158.3086954 31.59087514 160.10845541 31.96808797 161.90625 32.3515625 C166.1052882 31.87439907 167.43591177 30.00334991 170.20019531 26.95166016 C196.01536185 -1.04161729 251.02749467 -27.82462698 288.98754883 -29.60253906 C299.68699253 -29.71177764 307.52450103 -27.11929922 315.3203125 -19.71484375 C324.36295681 -10.48293479 325.92684619 -0.48893714 327 12 C327.11214844 13.20527344 327.22429687 14.41054688 327.33984375 15.65234375 C329.57329247 45.29908082 328.13023779 75.15377201 323.625 104.5 C323.52104919 105.18996063 323.41709839 105.87992126 323.30999756 106.59078979 C321.38401585 119.25437189 321.38401585 119.25437189 319.36328125 125.2578125 C317.14385616 131.89022201 315.97192174 136.44939289 319.0390625 143.01953125 C321.04667077 146.78435566 323.25462423 150.40893609 325.48828125 154.04296875 C345.45971 186.77468074 352.96517199 228.54717315 358 266 C358.11859375 266.8235498 358.2371875 267.64709961 358.359375 268.49560547 C359.93379846 279.59388515 360.24269669 290.72008434 360.35046387 301.91461182 C360.36653893 303.48560952 360.38853657 305.05656036 360.41711426 306.62738037 C360.64225796 320.44845464 358.29786697 332.56049696 352.875 345.375 C352.58133545 346.07359131 352.2876709 346.77218262 351.98510742 347.49194336 C340.29180692 374.37361208 319.5769516 399.61783939 296.7578125 417.796875 C294.9800802 419.21704641 293.2228031 420.66340172 291.4921875 422.140625 C241.27889613 464.82960053 172.30727507 483.75536636 107.39550781 483.39111328 C104.00024284 483.37500115 100.60616753 483.39110388 97.2109375 483.41015625 C77.27603166 483.42952463 57.43826684 481.67758327 37.875 477.75 C36.81772705 477.54093018 35.7604541 477.33186035 34.67114258 477.11645508 C-9.35665889 468.06740497 -51.42616984 448.81152514 -86 420 C-86.53625 419.55398438 -87.0725 419.10796875 -87.625 418.6484375 C-99.2062001 408.98020349 -109.65243436 398.89253642 -119 387 C-120.22203125 385.48599609 -120.22203125 385.48599609 -121.46875 383.94140625 C-136.82486599 364.71804403 -152.04397664 339.62948357 -152.203125 314.3671875 C-152.21013931 313.62642471 -152.21715363 312.88566193 -152.22438049 312.12245178 C-152.24196852 309.70657312 -152.24824576 307.29094061 -152.25 304.875 C-152.25067474 304.04565948 -152.25134949 303.21631897 -152.25204468 302.36184692 C-152.23278671 287.40884829 -151.28110743 272.79410682 -149 258 C-148.82307617 256.85241211 -148.64615234 255.70482422 -148.46386719 254.52246094 C-142.75985857 218.59410268 -134.19407748 178.24175078 -113.82104492 147.49462891 C-110.26753593 142.03925157 -108.33957207 138.22647218 -109.61938477 131.66015625 C-110.40701986 128.57866512 -111.33128779 125.54937657 -112.28173828 122.51464844 C-113.58986335 117.93487678 -114.33735163 113.25492297 -115.125 108.5625 C-115.29193359 107.58974121 -115.45886719 106.61698242 -115.63085938 105.61474609 C-118.91775247 85.98832764 -120.21966325 66.13760991 -120.1875 46.25 C-120.18689575 45.54943481 -120.1862915 44.84886963 -120.18566895 44.1270752 C-120.16221995 33.98281178 -119.89339099 23.87599491 -119.25 13.75 C-119.1883667 12.65204102 -119.1267334 11.55408203 -119.06323242 10.42285156 C-118.09348161 -2.72870154 -115.05294431 -13.1229355 -105 -22 C-76.87133354 -43.64528962 -25.90317097 -14.46901956 0 0 Z " fill="#F09454" transform="translate(152,29)"/>
<path d="M0 0 C0.95849854 -0.00942627 1.91699707 -0.01885254 2.90454102 -0.02856445 C24.86080823 0.07183087 43.71914821 10.47384664 61.328125 22.61328125 C64.09508668 24.50866416 66.91273132 26.26884509 69.796875 27.98046875 C83.25961081 36.05753942 83.25961081 36.05753942 86.18359375 43.77734375 C90.15265919 52.98034164 99.65188585 59.72138162 108.25 64.25 C112.5251057 65.8668669 116.81234903 67.16205976 121.25 68.25 C121.25 71.25 121.25 71.25 119.81640625 72.86328125 C117.6542838 74.69665994 115.47644705 76.49503586 113.25 78.25 C112.57582031 78.78238281 111.90164062 79.31476563 111.20703125 79.86328125 C99.3624141 88.46340665 84.67217133 91.656708 70.25 90.25 C66.30522919 89.50462179 62.49284347 88.34676829 58.640625 87.2265625 C54.31265465 85.98002726 50.76549322 85.17716946 46.25 85.25 C43 87 43 87 41.25 90.25 C40.41699333 94.01340513 40.56686197 97.13213777 42.625 100.5 C56.53996342 109.77664228 75.98323361 111.19652281 92.1640625 108.62890625 C104.0192763 105.82109245 116.23963468 100.45217371 125.57421875 92.4765625 C127.66303582 90.94768474 129.82756398 90.13313681 132.25 89.25 C132.78625 89.7346875 133.3225 90.219375 133.875 90.71875 C150.2244458 104.70182865 168.98510435 110.18202541 190.25 109.25 C199.14665242 108.49695808 212.5037023 107.00618582 219.125 100.37109375 C220.40759693 97.95286411 220.65266514 96.41251582 220.625 93.6875 C220.63273437 92.92308594 220.64046875 92.15867187 220.6484375 91.37109375 C220.14802368 88.70712607 219.41003536 87.85655691 217.25 86.25 C210.85130498 83.98124826 205.23399911 85.91074465 199.14453125 88.2421875 C185.82592783 92.87943404 171.91569724 90.52996553 159.34765625 84.96484375 C152.50794816 81.52100756 146.32179632 77.02590687 141.25 71.25 C141.25 70.26 141.25 69.27 141.25 68.25 C142.14460937 67.97027344 143.03921875 67.69054687 143.9609375 67.40234375 C159.88883232 62.12134664 171.2643891 53.20394652 179.25 38.25 C179.63865234 37.23873047 179.63865234 37.23873047 180.03515625 36.20703125 C181.8704565 33.25048647 184.36343985 31.99892042 187.3125 30.1875 C188.58910337 29.39543586 189.86511983 28.60242517 191.140625 27.80859375 C192.14899414 27.18573486 192.14899414 27.18573486 193.17773438 26.55029297 C195.26068086 25.24329804 197.3123987 23.89770516 199.359375 22.53515625 C225.8303808 4.9435084 250.39302161 -3.98860773 282.6875 1.3125 C300.97609292 5.3978433 319.19272117 13.822893 333.25 26.25 C334.06855469 26.94867188 334.88710938 27.64734375 335.73046875 28.3671875 C345.26237632 36.67250852 356.02036094 46.54402773 361.25 58.25 C361.42053479 61.85649504 360.01163833 64.16593939 358.25 67.25 C357.70214844 68.37148438 357.15429688 69.49296875 356.58984375 70.6484375 C342.63590917 98.86327103 318.86998975 123.39990747 293.25 141.25 C292.59418945 141.71277344 291.93837891 142.17554688 291.26269531 142.65234375 C257.84741991 165.99839465 217.59435499 180.93597892 177.25 186.25 C176.15478027 186.39808105 175.05956055 186.54616211 173.93115234 186.69873047 C147.73148225 190.11192547 119.90695838 191.5435328 93.68310547 187.60498047 C90.80518183 187.18510279 87.92140436 186.83077848 85.03515625 186.47265625 C39.22315668 180.5387854 -5.53891335 163.27955829 -41.75 134.25 C-42.73484375 133.46882812 -43.7196875 132.68765625 -44.734375 131.8828125 C-64.9450546 115.51286092 -82.3715532 96.19388877 -94.75 73.25 C-95.07677734 72.64575195 -95.40355469 72.04150391 -95.74023438 71.41894531 C-101.04193311 61.41239222 -101.04193311 61.41239222 -100.109375 57.69921875 C-85.95183409 32.19123555 -59.42637828 12.12759666 -31.69580078 3.82226562 C-21.1314244 0.85238097 -10.9247538 0.08098861 0 0 Z " fill="#F6E2CC" transform="translate(125.75,302.75)"/>
<path d="M0 0 C9.250642 5.32719735 18.14792428 11.11339582 26.5625 17.6875 C27.13307129 18.13311279 27.70364258 18.57872559 28.29150391 19.0378418 C30.93232351 21.15555354 33.22618902 23.24758054 35.51953125 25.7578125 C39.95017251 30.5965057 39.95017251 30.5965057 46.08203125 32.21484375 C49.51287139 31.77251442 52.85505165 31.15641683 56.24560547 30.48339844 C62.03837545 29.46676268 67.89908651 28.94315011 73.75 28.375 C74.41889252 28.30960022 75.08778503 28.24420044 75.77694702 28.17681885 C101.82763052 25.67830148 128.44683187 26.28378245 154.265625 30.890625 C155.00264648 31.01518066 155.73966797 31.13973633 156.49902344 31.26806641 C158.3086954 31.59087514 160.10845541 31.96808797 161.90625 32.3515625 C166.1052882 31.87439907 167.43591177 30.00334991 170.20019531 26.95166016 C196.01536185 -1.04161729 251.02749467 -27.82462698 288.98754883 -29.60253906 C299.68699253 -29.71177764 307.52450103 -27.11929922 315.3203125 -19.71484375 C324.36295681 -10.48293479 325.92684619 -0.48893714 327 12 C327.11214844 13.20527344 327.22429687 14.41054688 327.33984375 15.65234375 C329.57329247 45.29908082 328.13023779 75.15377201 323.625 104.5 C323.52104919 105.18996063 323.41709839 105.87992126 323.30999756 106.59078979 C321.38401585 119.25437189 321.38401585 119.25437189 319.36328125 125.2578125 C317.14385616 131.89022201 315.97192174 136.44939289 319.0390625 143.01953125 C321.04667077 146.78435566 323.25462423 150.40893609 325.48828125 154.04296875 C345.45971 186.77468074 352.96517199 228.54717315 358 266 C358.11859375 266.8235498 358.2371875 267.64709961 358.359375 268.49560547 C359.93379846 279.59388515 360.24269669 290.72008434 360.35046387 301.91461182 C360.36653893 303.48560952 360.38853657 305.05656036 360.41711426 306.62738037 C360.64225796 320.44845464 358.29786697 332.56049696 352.875 345.375 C352.58133545 346.07359131 352.2876709 346.77218262 351.98510742 347.49194336 C340.29180692 374.37361208 319.5769516 399.61783939 296.7578125 417.796875 C294.9800802 419.21704641 293.2228031 420.66340172 291.4921875 422.140625 C241.27889613 464.82960053 172.30727507 483.75536636 107.39550781 483.39111328 C104.00024284 483.37500115 100.60616753 483.39110388 97.2109375 483.41015625 C77.27603166 483.42952463 57.43826684 481.67758327 37.875 477.75 C36.81772705 477.54093018 35.7604541 477.33186035 34.67114258 477.11645508 C-9.35665889 468.06740497 -51.42616984 448.81152514 -86 420 C-86.53625 419.55398438 -87.0725 419.10796875 -87.625 418.6484375 C-99.2062001 408.98020349 -109.65243436 398.89253642 -119 387 C-120.22203125 385.48599609 -120.22203125 385.48599609 -121.46875 383.94140625 C-136.82486599 364.71804403 -152.04397664 339.62948357 -152.203125 314.3671875 C-152.21013931 313.62642471 -152.21715363 312.88566193 -152.22438049 312.12245178 C-152.24196852 309.70657312 -152.24824576 307.29094061 -152.25 304.875 C-152.25067474 304.04565948 -152.25134949 303.21631897 -152.25204468 302.36184692 C-152.23278671 287.40884829 -151.28110743 272.79410682 -149 258 C-148.82307617 256.85241211 -148.64615234 255.70482422 -148.46386719 254.52246094 C-142.75985857 218.59410268 -134.19407748 178.24175078 -113.82104492 147.49462891 C-110.26753593 142.03925157 -108.33957207 138.22647218 -109.61938477 131.66015625 C-110.40701986 128.57866512 -111.33128779 125.54937657 -112.28173828 122.51464844 C-113.58986335 117.93487678 -114.33735163 113.25492297 -115.125 108.5625 C-115.29193359 107.58974121 -115.45886719 106.61698242 -115.63085938 105.61474609 C-118.91775247 85.98832764 -120.21966325 66.13760991 -120.1875 46.25 C-120.18689575 45.54943481 -120.1862915 44.84886963 -120.18566895 44.1270752 C-120.16221995 33.98281178 -119.89339099 23.87599491 -119.25 13.75 C-119.1883667 12.65204102 -119.1267334 11.55408203 -119.06323242 10.42285156 C-118.09348161 -2.72870154 -115.05294431 -13.1229355 -105 -22 C-76.87133354 -43.64528962 -25.90317097 -14.46901956 0 0 Z M-99 38 C-99.31217122 40.5515084 -99.31217122 40.5515084 -99.265625 43.546875 C-99.27190918 45.26233521 -99.27190918 45.26233521 -99.27832031 47.01245117 C-99.26897461 48.24584229 -99.25962891 49.4792334 -99.25 50.75 C-99.24323242 52.01755127 -99.23646484 53.28510254 -99.22949219 54.59106445 C-99.01546824 74.37459199 -96.33360705 93.52652967 -93 113 C-92.66598537 114.99988633 -92.33222248 116.99981517 -92 119 C-91.34 119 -90.68 119 -90 119 C-88.88605839 117.88605839 -87.77440918 116.76976466 -86.671875 115.64453125 C-76.33675267 105.47844129 -76.33675267 105.47844129 -70.0625 105.4375 C-67.45608927 105.65982542 -65.51180037 106.16273321 -63 107 C-61.54514767 111.36455698 -60.99198051 117.6492911 -63 122 C-63.55945313 122.26039063 -64.11890625 122.52078125 -64.6953125 122.7890625 C-67.7651206 124.40201252 -70.1174316 126.64438095 -72.625 129 C-73.15134033 129.49346924 -73.67768066 129.98693848 -74.2199707 130.49536133 C-75.2995706 131.51117778 -76.37713149 132.52916567 -77.45263672 133.54931641 C-78.84306353 134.85286896 -80.26541945 136.12216442 -81.69140625 137.38671875 C-89.14734028 144.25924636 -93.49927137 152.05345277 -98 161 C-98.40750488 161.79873535 -98.81500977 162.5974707 -99.23486328 163.42041016 C-119.4469152 203.32346456 -130.94937455 250.10048001 -131.94873047 294.85058594 C-131.9845337 296.35159366 -132.03414184 297.85230759 -132.09423828 299.35253906 C-133.35935024 331.07569811 -117.34288944 358.15251671 -96.625 381.125 C-94.76105835 383.09591104 -92.88792614 385.0525921 -91 387 C-90.46648926 387.55929199 -89.93297852 388.11858398 -89.38330078 388.69482422 C-44.17181973 435.99399271 23.2756836 461.36713308 88.00708008 463.12451172 C92.48382374 463.21882943 96.95984992 463.24606055 101.4375 463.25 C102.64179657 463.25151062 102.64179657 463.25151062 103.87042236 463.25305176 C119.73512747 463.23973291 135.26571253 462.12738122 151 460 C152.52488037 459.79914795 152.52488037 459.79914795 154.08056641 459.59423828 C170.19299279 457.38577313 185.55755289 453.02874471 201 448 C201.87108398 447.71785645 202.74216797 447.43571289 203.63964844 447.14501953 C223.85330181 440.47116269 243.42940966 431.02172824 261 419 C261.8971875 418.39357666 261.8971875 418.39357666 262.8125 417.77490234 C292.73210525 397.43892065 317.54044309 370.94084015 333.375 338.3125 C333.69702393 337.66023438 334.01904785 337.00796875 334.35083008 336.3359375 C339.11300247 326.15378536 340.53557386 315.97112612 340.4375 304.8125 C340.42992676 303.56855469 340.42235352 302.32460938 340.41455078 301.04296875 C339.98840986 276.00952268 335.69009123 251.33016911 330 227 C329.76023437 225.96665527 329.52046875 224.93331055 329.2734375 223.86865234 C324.20397962 202.38264644 316.73274913 181.81428279 307 162 C306.47212891 160.90461914 306.47212891 160.90461914 305.93359375 159.78710938 C298.50719025 144.7287746 286.71587275 133.3098754 273.98046875 122.57421875 C270.25571657 119.35716543 270.08228343 119.02031459 269.6875 114.125 C269.75098761 111.21515138 269.94700707 110.09216162 271.4375 107.5 C275.3499961 105.20975838 278.59377978 104.94449066 283 106 C286.33273828 107.97139942 289.10358074 110.44523583 292 113 C293.50994642 114.16014217 295.03014634 115.30711939 296.5625 116.4375 C297.22378906 116.93121094 297.88507813 117.42492187 298.56640625 117.93359375 C299.03949219 118.28550781 299.51257813 118.63742188 300 119 C305.70110746 96.80330242 307.16179396 73.60476245 307.5625 50.75 C307.60149414 49.53715332 307.64048828 48.32430664 307.68066406 47.07470703 C307.8704635 41.29245311 307.8704635 41.29245311 305.69482422 36.13867188 C302.67257384 33.55316288 299.85033538 32.08676892 295.9375 31.6875 C286.03062161 32.47376019 278.02354056 38.76976094 270.98046875 45.37890625 C270.42256149 45.89804092 269.86465424 46.4171756 269.2898407 46.95204163 C265.15058191 50.83783883 261.14231063 54.84113117 257.17578125 58.90234375 C256.61083954 59.47973297 256.04589783 60.05712219 255.46383667 60.65200806 C253.16039096 63.0096978 250.85868389 65.36858724 248.57592773 67.74633789 C241.97372341 74.60880087 236.11503728 80.59711084 227 84 C225.3603125 84.6496875 225.3603125 84.6496875 223.6875 85.3125 C207.59621008 88.312571 195.15721205 82.51466201 181.890625 74.03515625 C178.52011663 71.66213617 175.46103307 69.10180475 172.48828125 66.25 C171.0686809 64.78561835 171.0686809 64.78561835 169 65 C168.71382813 64.42378906 168.42765625 63.84757812 168.1328125 63.25390625 C167.57207031 62.13822266 167.57207031 62.13822266 167 61 C166.53207031 59.99259766 166.53207031 59.99259766 166.0546875 58.96484375 C163.86018654 55.19349939 161.99011213 53.34666088 157.8203125 51.88671875 C153.55329554 51.03593316 149.32054256 50.48328419 145 50 C143.52461932 49.7964427 142.04936005 49.59200359 140.57421875 49.38671875 C111.2688418 45.71486523 79.9855222 46.27500319 51 52 C50.26845703 52.13994385 49.53691406 52.2798877 48.78320312 52.42407227 C45.91533734 53.35031753 45.03227501 55.5200043 43.4375 58 C33.21694671 72.54970109 16.10975816 81.92085236 -1 86 C-12.55621125 87.54478917 -21.88594711 83.87164711 -31 77 C-33.86430773 74.46117892 -36.52649957 71.75717991 -39.18359375 69.00390625 C-39.92400406 68.25213608 -40.66441437 67.50036591 -41.42726135 66.72581482 C-44.55864149 63.54592932 -47.67171235 60.3483457 -50.78637695 57.15209961 C-53.07907717 54.80469132 -55.38108889 52.46669207 -57.68359375 50.12890625 C-58.36932968 49.4182753 -59.05506561 48.70764435 -59.76158142 47.97547913 C-67.59159357 40.02981591 -76.25323612 32.93495426 -87.625 31.5625 C-92.56359202 32.20268785 -95.53982355 34.53982355 -99 38 Z " fill="#010100" transform="translate(152,29)"/>
<path d="M0 0 C1.27235001 0.20831451 1.27235001 0.20831451 2.57040405 0.4208374 C5.33073714 0.87490948 8.08916889 1.33954514 10.84765625 1.8046875 C12.79769905 2.12819596 14.74781403 2.45126966 16.69799805 2.77392578 C29.19802557 4.85051482 41.67972815 7.02285212 54.15209961 9.25927734 C70.59482081 12.19775288 87.07941859 14.89133605 103.55981445 17.60888672 C104.69751785 17.79709991 105.83522125 17.98531311 107.00740051 18.17922974 C109.14207661 18.53232014 111.2769792 18.88404527 113.41215515 19.23410034 C118.03047058 19.99864747 122.62160071 20.81327699 127.20336914 21.77416992 C133.72551094 23.09943368 140.2092663 23.21143514 146.84765625 23.2421875 C147.93320297 23.24812424 147.93320297 23.24812424 149.04067993 23.25418091 C168.43579779 23.25391894 187.26448909 19.69816193 206.27288818 16.16717529 C210.44717404 15.39557629 214.62590215 14.64912098 218.8046875 13.90234375 C223.58934004 13.04603314 228.37351899 12.18755258 233.15527344 11.31518555 C247.47239145 8.71031808 261.82871934 6.36625424 276.19921875 4.07617188 C277.90369386 3.80368567 279.60812207 3.53090588 281.3125 3.2578125 C282.12969009 3.12705826 282.94688019 2.99630402 283.78883362 2.86158752 C290.37404412 1.79517295 296.91994673 0.56627646 303.46240234 -0.7355957 C309.93784789 -1.83378945 316.28608821 -2.86388194 322.09765625 0.5546875 C325.23252805 4.23005444 325.07063408 7.17919797 325.078125 11.8203125 C325.0814534 12.5389447 325.0847818 13.2575769 325.08821106 13.99798584 C325.09328338 15.5279476 325.09561929 17.05792046 325.09545898 18.58789062 C325.09760879 20.87910594 325.11565635 23.16980986 325.13476562 25.4609375 C325.1861601 38.32861141 323.88722209 50.65122135 320.28515625 63.0546875 C320.02790771 63.94317383 319.77065918 64.83166016 319.50561523 65.74707031 C315.8378799 77.83335866 310.48038771 89.26887897 301.91015625 98.6796875 C300.89501953 99.81470703 300.89501953 99.81470703 299.859375 100.97265625 C287.50506556 114.07305188 271.5114028 120.84120867 253.6237793 121.8684082 C250.23765333 121.94649808 246.85954071 121.95289859 243.47265625 121.9296875 C242.34794922 121.93742187 241.22324219 121.94515625 240.06445312 121.953125 C216.41822998 121.89879709 195.96221158 114.25165851 178.828125 97.6640625 C171.81114947 90.19036076 165.71524516 81.19240977 161.91015625 71.6796875 C154.32015625 71.3496875 146.73015625 71.0196875 138.91015625 70.6796875 C138.25015625 72.6596875 137.59015625 74.6396875 136.91015625 76.6796875 C127.25944829 95.30386076 112.44592264 108.84516282 92.91015625 116.6796875 C92.13027344 116.99679687 91.35039062 117.31390625 90.546875 117.640625 C69.39279792 125.45255109 41.14306148 124.3179438 20.67578125 115.24609375 C1.30601035 105.58437788 -10.61993099 88.65946327 -17.56640625 68.515625 C-22.85245242 52.46365852 -24.27379578 37.16343129 -24.33984375 20.3046875 C-24.3606221 18.95182207 -24.38145514 17.59895748 -24.40234375 16.24609375 C-24.4075 14.95832031 -24.41265625 13.67054688 -24.41796875 12.34375 C-24.42731445 11.18311035 -24.43666016 10.0224707 -24.44628906 8.82666016 C-24.04826018 5.31255581 -23.20799907 3.48590207 -21.08984375 0.6796875 C-15.01366111 -3.37110093 -6.88101388 -1.17341603 0 0 Z " fill="#000000" transform="translate(106.08984375,170.3203125)"/>
<path d="M0 0 C1.08474609 -0.00773437 2.16949219 -0.01546875 3.28710938 -0.0234375 C9.38254845 -0.00863376 14.61130567 0.45249021 20.4375 2.25 C21.51773438 2.58257812 22.59796875 2.91515625 23.7109375 3.2578125 C35.77309032 7.60261818 43.96583036 14.10764523 50.4375 25.25 C53.15777948 33.41083845 52.65229281 43.93898928 49 51.6875 C45.57688045 57.57300508 41.27107219 62.48474685 36.4375 67.25 C35.59058594 68.11238281 35.59058594 68.11238281 34.7265625 68.9921875 C28.2396125 75.09941359 19.41586347 79.84189257 10.4375 80.25 C16.4123304 91.22922656 28.77752939 97.01405268 40.3125 100.625 C51.89789709 102.9958513 63.73593075 101.27022324 74.625 97 C78.72796589 95.90587576 82.33836393 96.20771493 86.4375 97.25 C89 98.75 89 98.75 90.4375 101.25 C91.23329469 105.73158065 91.25288934 108.93990202 88.80859375 112.8671875 C80.40768837 121.309613 64.27757914 122.26856981 52.9375 122.5 C33.49843651 122.1028076 15.87071406 115.44608143 1.4375 102.25 C-2.09778821 103.50563685 -4.51938257 104.89351137 -7.3125 107.375 C-22.45125208 119.43553915 -41.52702452 123.98656969 -60.5625 122.25 C-70.1205652 120.95537494 -80.56891854 118.94185823 -88.5625 113.25 C-91.01915197 109.56502204 -91.26336491 106.53028214 -90.5625 102.25 C-88.76886089 99.4399654 -87.54369065 97.74059532 -84.5625 96.25 C-78.86916478 96.53949162 -73.90205062 97.69549761 -68.4375 99.3125 C-53.06809161 103.65098263 -38.03195194 101.23267503 -23.953125 93.8203125 C-20.12375871 91.30494445 -16.87547332 88.22603266 -13.59375 85.04296875 C-11.5625 83.25 -11.5625 83.25 -9.5625 83.25 C-9.5625 82.26 -9.5625 81.27 -9.5625 80.25 C-10.67625 80.188125 -11.79 80.12625 -12.9375 80.0625 C-24.95530931 78.51523355 -35.16538382 69.52955196 -42.7734375 60.6484375 C-45.65713744 56.78251662 -47.67854232 52.67386823 -49.5625 48.25 C-49.995625 47.280625 -50.42875 46.31125 -50.875 45.3125 C-52.60886408 37.58892364 -52.40296517 29.29694878 -48.5625 22.25 C-40.26729569 10.94928689 -28.87765137 3.56329413 -15.19384766 0.65136719 C-10.14647666 -0.11852314 -5.09477119 -0.03645632 0 0 Z " fill="#010101" transform="translate(256.5625,290.75)"/>
<path d="M0 0 C0.66 0.33 1.32 0.66 2 1 C-4.53760775 9.79244427 -11.4141043 18.08521532 -19 26 C-19.55284668 26.58539551 -20.10569336 27.17079102 -20.67529297 27.77392578 C-30.01829959 37.63065506 -39.90543603 46.16794242 -51 54 C-51.66161133 54.46857422 -52.32322266 54.93714844 -53.00488281 55.41992188 C-86.41729686 78.75400004 -126.66509344 93.68722343 -167 99 C-168.09521973 99.14808105 -169.19043945 99.29616211 -170.31884766 99.44873047 C-196.51851775 102.86192547 -224.34304162 104.2935328 -250.56689453 100.35498047 C-253.44481817 99.93510279 -256.32859564 99.58077848 -259.21484375 99.22265625 C-305.02684332 93.2887854 -349.78891335 76.02955829 -386 47 C-386.98484375 46.21882813 -387.9696875 45.43765625 -388.984375 44.6328125 C-403.62228138 32.77344021 -416.89351924 19.21636792 -428 4 C-424.61973688 4 -424.22221643 4.3386821 -421.7265625 6.38671875 C-421.07816406 6.90621094 -420.42976563 7.42570312 -419.76171875 7.9609375 C-419.05660156 8.53070313 -418.35148437 9.10046875 -417.625 9.6875 C-389.56964115 31.65856416 -356.14198362 48.03340299 -322 58 C-321.0934668 58.2669165 -320.18693359 58.53383301 -319.25292969 58.80883789 C-286.4650253 68.32522195 -252.50919939 73.2474017 -218.375 73.125 C-217.52674652 73.12245209 -216.67849304 73.11990417 -215.80453491 73.11727905 C-210.87596495 73.09990836 -205.94771343 73.06765626 -201.01934814 73.01959229 C-199.33176897 73.00321892 -197.64415759 72.99021131 -195.95654297 72.97802734 C-171.69552252 72.69030871 -146.40410617 68.17934758 -123 62 C-122.15969238 61.78263184 -121.31938477 61.56526367 -120.45361328 61.34130859 C-76.24099351 49.77878201 -34.9332067 29.67384912 0 0 Z " fill="#F0C39D" transform="translate(470,390)"/>
<path d="M0 0 C0.67755341 0.23390442 1.35510681 0.46780884 2.05319214 0.70880127 C2.78569183 0.95068176 3.51819153 1.19256226 4.27288818 1.44177246 C6.62575506 2.22499255 8.97050104 3.02955562 11.31491089 3.83770752 C12.51985703 4.24661728 12.51985703 4.24661728 13.74914551 4.66378784 C26.17801805 8.88515118 38.26897378 13.48343856 50.00241089 19.40020752 C51.09126587 19.93460449 51.09126587 19.93460449 52.20211792 20.47979736 C66.98094917 27.75658439 80.37351487 36.82829078 93.00241089 47.40020752 C93.64178589 47.92872314 94.28116089 48.45723877 94.93991089 49.00177002 C96.29930461 50.12830463 97.65195123 51.26297833 99.00241089 52.40020752 C98.04187348 57.59840996 95.03514923 60.179212 91.00241089 63.40020752 C71.21185431 76.02161757 71.21185431 76.02161757 61.00241089 74.40020752 C54.56284147 71.48616072 49.7540419 66.51314086 44.91647339 61.50177002 C44.17464813 60.7485849 43.43282288 59.99539978 42.66851807 59.21939087 C39.52436862 56.02665314 36.39840585 52.81633207 33.27096558 49.60723877 C30.97168049 47.25323166 28.66307584 44.90864169 26.35397339 42.56427002 C25.6651004 41.85050201 24.97622742 41.13673401 24.26647949 40.40133667 C17.52911905 33.56494032 10.02072004 27.97312781 1.25241089 24.02520752 C0.20569214 23.54309814 -0.84102661 23.06098877 -1.91946411 22.56427002 C-9.37765128 19.74378807 -18.26459142 19.3380748 -25.99758911 21.40020752 C-26.50803469 14.48083408 -26.12966022 9.1532197 -21.99758911 3.40020752 C-15.25980961 -2.85630202 -8.49620255 -2.73892713 0 0 Z " fill="#EE9353" transform="translate(79.99758911132813,21.59979248046875)"/>
<path d="M0 0 C4.60200499 3.03313966 6.71319924 5.93301076 8 11.25 C8.67816954 14.80741565 8.93611305 18.18329557 8.75 21.8125 C7.986875 21.6475 7.22375 21.4825 6.4375 21.3125 C-8.23638189 19.3228211 -19.9206403 23.30282249 -31.87890625 32.01171875 C-37.24887057 36.31120521 -41.9864085 41.30693953 -46.7421875 46.26171875 C-49.58728963 49.20901393 -52.59085563 51.86201838 -55.72753906 54.49243164 C-57.56769266 56.08795931 -59.1372669 57.81111396 -60.6875 59.6875 C-72.80879052 73.84712412 -72.80879052 73.84712412 -82.125 75.5 C-92.14354664 75.17682108 -104.05195886 67.3870102 -111.25 60.8125 C-112.34178092 59.60368458 -113.41253767 58.37553293 -114.4609375 57.12890625 C-114.9873584 56.5057251 -115.5137793 55.88254395 -116.05615234 55.24047852 C-116.45012207 54.76924561 -116.8440918 54.2980127 -117.25 53.8125 C-89.98623163 28.79398314 -56.78879567 12.66800719 -21.6875 1.6875 C-20.75421875 1.39190186 -19.8209375 1.09630371 -18.859375 0.79174805 C-12.3501133 -1.15330962 -6.57834345 -2.40362549 0 0 Z " fill="#EF9353" transform="translate(449.25,21.1875)"/>
<path d="M0 0 C3.10039543 1.75494081 5.48825667 3.48825667 8 6 C8.4833488 10.16281466 8.33103018 14.37522481 8.3125 18.5625 C8.30831055 19.84431152 8.30412109 21.12612305 8.29980469 22.44677734 C8.10910278 44.07810429 6.39089097 66.01109964 1 87 C-0.14670384 86.14700232 -1.29228934 85.29250133 -2.4375 84.4375 C-3.1696875 83.89738281 -3.901875 83.35726562 -4.65625 82.80078125 C-6.21860808 81.60036946 -7.74114165 80.34628175 -9.21875 79.04296875 C-13.80237518 75.0807153 -16.81513153 73.21178338 -22.95703125 73.55859375 C-25.06402015 73.89313331 -25.06402015 73.89313331 -26.87158203 75.16894531 C-29 76 -29 76 -30.98852539 75.20825195 C-31.68453857 74.72316162 -32.38055176 74.23807129 -33.09765625 73.73828125 C-33.89075195 73.20098389 -34.68384766 72.66368652 -35.50097656 72.11010742 C-36.3462793 71.51689697 -37.19158203 70.92368652 -38.0625 70.3125 C-39.8474884 69.10267086 -41.63532727 67.89703821 -43.42578125 66.6953125 C-44.34182129 66.07946289 -45.25786133 65.46361328 -46.20166016 64.82910156 C-50.61857605 61.94203701 -55.16856722 59.30302436 -59.75 56.6875 C-60.57765869 56.21417236 -61.40531738 55.74084473 -62.25805664 55.25317383 C-64.1694554 54.16423721 -66.08430936 53.08136836 -68 52 C-65.662857 49.56547604 -63.22565365 47.33246347 -60.65234375 45.15625 C-56.65136476 41.68212985 -52.91856772 37.98042164 -49.19140625 34.21875 C-48.57607025 33.59790527 -47.96073425 32.97706055 -47.32675171 32.33740234 C-44.75705618 29.74008012 -42.19092882 27.13930349 -39.62963867 24.53369141 C-14.29363145 -1.2113247 -14.29363145 -1.2113247 0 0 Z " fill="#F5E1CB" transform="translate(451,61)"/>
<path d="M0 0 C14.60905683 5.11782246 25.46115469 18.99052618 36.015625 29.734375 C39.02668202 32.79883196 42.04446672 35.85643463 45.06640625 38.91015625 C46.08375603 39.95240105 46.08375603 39.95240105 47.12165833 41.01570129 C50.75853221 44.68984061 54.27911945 47.73784415 58.703125 50.421875 C55.19365035 53.37552125 51.66336762 55.6647074 47.640625 57.859375 C43.11409711 60.35089338 38.76449096 63.01072621 34.48046875 65.90234375 C33.13964233 66.80351929 33.13964233 66.80351929 31.77172852 67.72290039 C29.99094662 68.92875751 28.2190422 70.1478409 26.45678711 71.38061523 C25.22907593 72.20928101 25.22907593 72.20928101 23.9765625 73.0546875 C23.24872559 73.55887207 22.52088867 74.06305664 21.77099609 74.58251953 C19.703125 75.421875 19.703125 75.421875 17.56152344 74.59960938 C16.94825195 74.21095703 16.33498047 73.82230469 15.703125 73.421875 C11.29794641 72.37628786 7.96322961 72.64973375 4.0703125 75.03515625 C0.39322876 77.94938232 -3.01481968 81.07224796 -6.296875 84.421875 C-7.286875 85.411875 -7.286875 85.411875 -8.296875 86.421875 C-8.956875 86.421875 -9.616875 86.421875 -10.296875 86.421875 C-16.66121355 50.88070345 -16.66121355 50.88070345 -17.296875 33.421875 C-17.34150879 32.32891113 -17.38614258 31.23594727 -17.43212891 30.10986328 C-17.56957021 26.33897371 -17.65699636 22.56944428 -17.734375 18.796875 C-17.78094238 17.56235596 -17.82750977 16.32783691 -17.87548828 15.0559082 C-17.97881016 6.42615616 -17.97881016 6.42615616 -16.00048828 3.51269531 C-10.99880516 -0.73622614 -6.21631345 -1.56465032 0 0 Z " fill="#F5E1CB" transform="translate(70.296875,61.578125)"/>
</svg>
